<svg width="260" height="80" viewBox="0 0 260 80" fill="none" xmlns="http://www.w3.org/2000/svg">
<rect width="260" height="80" rx="10" fill="#F2F2F2"/>
<path d="M166.282 56.4381V51.1367L160.5 41.5656H164.17L168.151 48.168L172.15 41.5656H175.542L169.739 51.1723V56.4381H166.282ZM220.773 56.693C219.578 56.693 218.432 56.537 217.338 56.2255C216.241 55.8996 215.36 55.482 214.692 54.972L215.866 52.3799C216.506 52.8331 217.259 53.2086 218.127 53.5061C219.008 53.7892 219.898 53.9309 220.794 53.9309C221.477 53.9309 222.023 53.8673 222.437 53.7397C222.864 53.5981 223.175 53.4067 223.376 53.1661C223.574 52.9251 223.675 52.6489 223.675 52.3374C223.675 51.9408 223.517 51.6291 223.205 51.4026C222.892 51.1616 222.48 50.9704 221.968 50.829C221.456 50.673 220.886 50.5315 220.261 50.4042C219.649 50.2623 219.03 50.0924 218.405 49.8941C217.792 49.6957 217.231 49.4407 216.719 49.1292C216.207 48.8177 215.787 48.4068 215.46 47.8969C215.147 47.3869 214.991 46.7354 214.991 45.9423C214.991 45.0925 215.217 44.3204 215.674 43.6264C216.143 42.9181 216.839 42.3586 217.765 41.9479C218.703 41.5229 219.877 41.3105 221.285 41.3105C222.224 41.3105 223.148 41.4237 224.059 41.6504C224.968 41.8628 225.772 42.1887 226.47 42.6278L225.403 45.2411C224.705 44.8445 224.008 44.554 223.312 44.3701C222.614 44.1716 221.932 44.0724 221.264 44.0724C220.594 44.0724 220.048 44.1503 219.621 44.3063C219.194 44.4619 218.887 44.6675 218.703 44.9224C218.518 45.163 218.426 45.4464 218.426 45.7722C218.426 46.1547 218.582 46.4662 218.896 46.707C219.207 46.9335 219.621 47.1177 220.133 47.2594C220.645 47.401 221.206 47.5427 221.819 47.6844C222.444 47.8258 223.063 47.9887 223.675 48.1731C224.3 48.3571 224.87 48.6051 225.382 48.9166C225.894 49.2281 226.306 49.639 226.619 50.1489C226.946 50.6589 227.11 51.3032 227.11 52.0823C227.11 52.9179 226.875 53.6827 226.406 54.3769C225.936 55.0709 225.232 55.6304 224.294 56.0554C223.368 56.4804 222.194 56.693 220.773 56.693ZM206.595 56.693C205.443 56.693 204.367 56.5088 203.373 56.1406C202.392 55.7582 201.538 55.2197 200.813 54.5257C200.087 53.8317 199.518 53.0173 199.106 52.0825C198.707 51.1477 198.509 50.1208 198.509 49.0018C198.509 47.8828 198.707 46.856 199.106 45.9212C199.518 44.9862 200.087 44.1716 200.813 43.4778C201.551 42.7836 202.413 42.2525 203.394 41.8843C204.376 41.5018 205.449 41.3107 206.616 41.3107C207.909 41.3107 209.076 41.5372 210.115 41.9906C211.167 42.4295 212.048 43.0812 212.761 43.9453L210.542 45.985C210.03 45.404 209.46 44.9721 208.835 44.6888C208.208 44.3915 207.525 44.2427 206.787 44.2427C206.089 44.2427 205.449 44.356 204.867 44.5827C204.282 44.8092 203.778 45.135 203.352 45.56C202.925 45.985 202.59 46.4877 202.349 47.0684C202.121 47.6492 202.008 48.2935 202.008 49.0018C202.008 49.71 202.121 50.3545 202.349 50.9353C202.59 51.516 202.925 52.0189 203.352 52.4437C203.778 52.8687 204.282 53.1943 204.867 53.421C205.449 53.6475 206.089 53.761 206.787 53.761C207.525 53.761 208.208 53.6193 208.835 53.3362C209.46 53.0387 210.03 52.5925 210.542 51.9976L212.761 54.0371C212.048 54.901 211.167 55.5597 210.115 56.0131C209.076 56.4663 207.903 56.693 206.595 56.693ZM191.591 56.4381V41.5656H195.048V56.4381H191.591ZM180.644 56.4381V44.3701H175.864V41.5656H188.879V44.3701H184.1V56.4381H180.644ZM150.38 56.4381V41.5656H153.837V53.6334H161.326V56.4381H150.38ZM97.9164 35.1916V20.319H104.381C105.718 20.319 106.87 20.5385 107.838 20.9776C108.805 21.4026 109.552 22.0187 110.078 22.8261C110.604 23.6334 110.867 24.5967 110.867 25.7155C110.867 26.8204 110.604 27.7765 110.078 28.5838C109.552 29.3771 108.775 29.9989 107.808 30.4238L111.145 35.1915L109.791 38.6314L104.544 31.0473L101.373 31.0526V35.1915L97.9164 35.1916ZM156.828 29.0938H150.043V35.1916H146.587V20.319H150.043V26.183H156.828V20.319H160.285V35.1916H156.828V29.0938ZM137.035 35.4464C135.84 35.4464 134.694 35.2906 133.599 34.9791C132.505 34.6533 131.622 34.2354 130.954 33.7255L132.127 31.1334C132.767 31.5866 133.521 31.9621 134.389 32.2595C135.27 32.5428 136.16 32.6843 137.056 32.6843C137.739 32.6843 138.287 32.6206 138.699 32.4931C139.126 32.3515 139.439 32.1602 139.638 31.9194C139.836 31.6787 139.936 31.4025 139.936 31.0909C139.936 30.6943 139.781 30.3827 139.467 30.1561C139.153 29.9153 138.742 29.724 138.229 29.5824C137.717 29.4266 137.148 29.285 136.523 29.1575C135.91 29.0159 135.291 28.8458 134.666 28.6476C134.054 28.4492 133.493 28.1943 132.981 27.8827C132.469 27.571 132.048 27.1603 131.722 26.6504C131.408 26.1405 131.253 25.4889 131.253 24.6957C131.253 23.8459 131.481 23.0739 131.935 22.3798C132.405 21.6716 133.102 21.1121 134.026 20.7014C134.965 20.2764 136.138 20.064 137.547 20.064C138.486 20.064 139.409 20.1773 140.32 20.4039C141.231 20.6163 142.034 20.9422 142.731 21.3812L141.665 23.9946C140.967 23.5979 140.271 23.3076 139.574 23.1235C138.876 22.9252 138.193 22.8261 137.525 22.8261C136.858 22.8261 136.309 22.904 135.882 23.0597C135.456 23.2156 135.151 23.4209 134.965 23.6758C134.779 23.9167 134.688 24.2 134.688 24.5257C134.688 24.9082 134.843 25.2198 135.157 25.4605C135.471 25.6871 135.882 25.8713 136.395 26.0129C136.907 26.1546 137.468 26.2962 138.08 26.4379C138.705 26.5795 139.324 26.7424 139.936 26.9265C140.562 27.1106 141.131 27.3585 141.643 27.6702C142.155 27.9817 142.567 28.3926 142.881 28.9025C143.207 29.4124 143.371 30.0569 143.371 30.8359C143.371 31.6716 143.137 32.4365 142.667 33.1306C142.198 33.8246 141.494 34.3841 140.555 34.809C139.631 35.2339 138.458 35.4464 137.035 35.4464ZM121.095 35.4464C118.976 35.4464 117.319 34.8586 116.124 33.683C114.929 32.5074 114.331 30.8289 114.331 28.6476V20.3189H117.788V28.52C117.788 29.9364 118.079 30.9563 118.663 31.5795C119.246 32.2027 120.064 32.5144 121.116 32.5144C122.169 32.5144 122.987 32.2027 123.57 31.5795C124.153 30.9563 124.445 29.9365 124.445 28.52V20.3189H127.858V28.6476C127.858 30.8289 127.26 32.5074 126.066 33.683C124.871 34.8586 123.214 35.4464 121.095 35.4464ZM101.373 28.3076H104.189C105.256 28.3076 106.052 28.081 106.579 27.6278C107.105 27.1604 107.368 26.5229 107.368 25.7156C107.368 24.8941 107.105 24.2567 106.579 23.8035C106.052 23.3502 105.256 23.1235 104.189 23.1235H101.373V28.3076ZM137.193 50.6378H141.938L139.57 44.9461L137.193 50.6378ZM143.025 53.2511H136.102L134.771 56.4381H131.229L137.886 41.5656H141.299L147.978 56.4381H144.351L143.025 53.2511ZM101.918 50.6378H106.662L104.295 44.9461L101.918 50.6378ZM107.749 53.2511H100.826L99.4952 56.4381H95.9534L102.61 41.5656H106.024L112.702 56.4381H109.075L107.749 53.2511ZM115.107 56.4381V41.5656H117.966L125.391 50.5884V41.5656H128.805V59.9999L118.521 47.4257V56.4381H115.107Z" fill="#1D1D1D"/>
<path d="M87.1758 38.672C72.9797 14.4184 46.0802 13.1419 32 38.6718C46.2529 63.1176 72.982 62.1063 87.1758 38.672Z" fill="#F34C2A"/>
<path fill-rule="evenodd" clip-rule="evenodd" d="M58.404 40.6169V53.0302L68.4161 36.1485H60.4122V23.7271L50.7598 40.6169H58.404Z" fill="white"/>
</svg>
