<svg width="373" height="79" viewBox="0 0 373 79" fill="none" xmlns="http://www.w3.org/2000/svg">
<rect width="373" height="79" rx="10" fill="#F2F2F2"/>
<path d="M234.535 63.6028V56.6772L226.981 44.1735H231.776L236.977 52.7988L242.2 44.1735H246.632L239.051 56.7236V63.6028H234.535ZM305.721 63.9358C304.16 63.9358 302.664 63.732 301.234 63.3251C299.801 62.8994 298.65 62.3538 297.777 61.6875L299.31 58.3012C300.147 58.8933 301.131 59.3839 302.265 59.7724C303.416 60.1423 304.579 60.3274 305.749 60.3274C306.641 60.3274 307.355 60.2443 307.896 60.0777C308.453 59.8926 308.86 59.6426 309.122 59.3283C309.381 59.0135 309.512 58.6527 309.512 58.2457C309.512 57.7276 309.306 57.3203 308.899 57.0244C308.489 56.7096 307.951 56.4599 307.282 56.2751C306.613 56.0713 305.869 55.8865 305.052 55.7201C304.252 55.5348 303.444 55.3129 302.627 55.0538C301.828 54.7945 301.094 54.4615 300.425 54.0545C299.756 53.6475 299.207 53.1108 298.781 52.4447C298.371 51.7784 298.167 50.9273 298.167 49.8912C298.167 48.781 298.463 47.7724 299.06 46.8657C299.673 45.9404 300.581 45.2094 301.791 44.6729C303.018 44.1177 304.551 43.8402 306.39 43.8402C307.617 43.8402 308.824 43.9882 310.014 44.2844C311.201 44.5618 312.252 44.9875 313.164 45.5611L311.77 48.9752C310.859 48.4571 309.947 48.0776 309.038 47.8372C308.127 47.5779 307.235 47.4484 306.363 47.4484C305.487 47.4484 304.774 47.5502 304.216 47.7539C303.659 47.9572 303.258 48.2258 303.018 48.5588C302.775 48.8732 302.655 49.2433 302.655 49.669C302.655 50.1686 302.859 50.5756 303.269 50.8902C303.676 51.1861 304.216 51.4267 304.885 51.6118C305.554 51.7969 306.287 51.9819 307.087 52.167C307.904 52.3518 308.712 52.5646 309.512 52.8055C310.329 53.0459 311.073 53.3698 311.742 53.7768C312.411 54.1838 312.949 54.7206 313.359 55.3866C313.785 56.0529 314 56.8947 314 57.9124C314 59.0041 313.693 60.0032 313.08 60.9101C312.467 61.8167 311.547 62.5477 310.321 63.1029C309.111 63.6581 307.578 63.9358 305.721 63.9358ZM287.199 63.9358C285.694 63.9358 284.289 63.6952 282.99 63.2142C281.708 62.7146 280.593 62.0111 279.645 61.1045C278.698 60.1978 277.954 59.1339 277.416 57.9127C276.894 56.6914 276.635 55.35 276.635 53.8882C276.635 52.4263 276.894 51.0849 277.416 49.8636C277.954 48.6421 278.698 47.5779 279.645 46.6716C280.61 45.7646 281.736 45.0708 283.018 44.5899C284.3 44.0902 285.703 43.8405 287.227 43.8405C288.916 43.8405 290.441 44.1364 291.798 44.7287C293.172 45.3021 294.324 46.1535 295.255 47.2823L292.356 49.947C291.687 49.188 290.943 48.6237 290.126 48.2536C289.306 47.8653 288.414 47.6709 287.45 47.6709C286.539 47.6709 285.702 47.8188 284.942 48.115C284.178 48.4109 283.52 48.8366 282.962 49.3918C282.405 49.947 281.967 50.6037 281.652 51.3624C281.354 52.1211 281.206 52.9628 281.206 53.8882C281.206 54.8132 281.354 55.6553 281.652 56.414C281.967 57.1726 282.405 57.8296 282.962 58.3845C283.52 58.9397 284.178 59.3652 284.942 59.6613C285.702 59.9572 286.539 60.1054 287.45 60.1054C288.414 60.1054 289.307 59.9204 290.126 59.5505C290.943 59.1619 291.687 58.579 292.356 57.8018L295.255 60.4662C294.324 61.5948 293.172 62.4553 291.798 63.0476C290.441 63.6396 288.908 63.9358 287.199 63.9358ZM267.599 63.6028V44.1735H272.114V63.6028H267.599ZM253.297 63.6028V47.8372H247.053V44.1735H264.056V47.8372H257.812V63.6028H253.297ZM213.761 63.6028V44.1735H218.276V59.9388H228.06V63.6028H213.761ZM145.223 35.8465V16.4171H153.668C155.415 16.4171 156.92 16.704 158.184 17.2776C159.447 17.8328 160.423 18.6377 161.11 19.6924C161.798 20.747 162.142 22.0055 162.142 23.4671C162.142 24.9105 161.798 26.1596 161.11 27.2143C160.423 28.2506 159.409 29.0628 158.145 29.6179L162.504 35.8465L160.735 40.3403L153.88 30.4325L149.738 30.4394V35.8465L145.223 35.8465ZM222.185 27.8804H213.321V35.8465H208.806V16.4171H213.321V24.0779H222.185V16.4171H226.7V35.8465H222.185V27.8804ZM196.326 36.1795C194.766 36.1795 193.269 35.9759 191.839 35.5689C190.409 35.1433 189.255 34.5974 188.382 33.9313L189.916 30.545C190.752 31.1371 191.736 31.6275 192.87 32.0161C194.021 32.3862 195.184 32.5711 196.354 32.5711C197.246 32.5711 197.963 32.4879 198.501 32.3213C199.058 32.1363 199.468 31.8865 199.727 31.5719C199.986 31.2573 200.117 30.8965 200.117 30.4895C200.117 29.9713 199.914 29.5643 199.504 29.2682C199.094 28.9536 198.556 28.7038 197.887 28.5187C197.218 28.3152 196.474 28.1302 195.657 27.9637C194.857 27.7787 194.049 27.5565 193.232 27.2976C192.433 27.0384 191.699 26.7054 191.03 26.2983C190.362 25.8911 189.812 25.3546 189.386 24.6884C188.976 24.0223 188.773 23.1711 188.773 22.1348C188.773 21.0246 189.071 20.0162 189.665 19.1093C190.278 18.1842 191.189 17.4533 192.396 16.9167C193.623 16.3615 195.156 16.084 196.995 16.084C198.222 16.084 199.429 16.232 200.619 16.528C201.809 16.8056 202.857 17.2312 203.769 17.8048L202.375 21.2189C201.464 20.7007 200.555 20.3214 199.643 20.0809C198.732 19.8219 197.84 19.6924 196.967 19.6924C196.095 19.6924 195.379 19.7941 194.821 19.9976C194.264 20.2012 193.865 20.4695 193.623 20.8025C193.38 21.1171 193.26 21.4872 193.26 21.9127C193.26 22.4124 193.464 22.8195 193.873 23.134C194.283 23.43 194.821 23.6707 195.49 23.8556C196.159 24.0407 196.892 24.2257 197.692 24.4108C198.509 24.5959 199.317 24.8086 200.117 25.0491C200.934 25.2896 201.678 25.6135 202.347 26.0207C203.016 26.4277 203.554 26.9644 203.964 27.6306C204.39 28.2967 204.605 29.1386 204.605 30.1564C204.605 31.2481 204.298 32.2474 203.685 33.1541C203.072 34.0607 202.152 34.7916 200.925 35.3468C199.718 35.9019 198.186 36.1795 196.326 36.1795ZM175.503 36.1795C172.734 36.1795 170.569 35.4115 169.008 33.8757C167.447 32.34 166.667 30.1472 166.667 27.2976V16.4171H171.183V27.1309C171.183 28.9813 171.563 30.3136 172.325 31.1278C173.087 31.942 174.156 32.3491 175.531 32.3491C176.906 32.3491 177.974 31.9419 178.736 31.1278C179.498 30.3136 179.879 28.9814 179.879 27.1309V16.4171H184.338V27.2976C184.338 30.1472 183.557 32.34 181.997 33.8757C180.436 35.4115 178.272 36.1795 175.503 36.1795ZM149.738 26.8534H153.417C154.811 26.8534 155.851 26.5574 156.539 25.9653C157.226 25.3547 157.571 24.5219 157.571 23.4672C157.571 22.394 157.226 21.5613 156.539 20.9692C155.851 20.3771 154.811 20.081 153.417 20.081H149.738V26.8534ZM196.533 56.0254H202.731L199.638 48.5897L196.533 56.0254ZM204.152 59.4394H195.107L193.369 63.6028H188.742L197.438 44.1735H201.898L210.622 63.6028H205.884L204.152 59.4394ZM150.45 56.0254H156.648L153.555 48.5897L150.45 56.0254ZM158.068 59.4394H149.024L147.285 63.6028H142.658L151.355 44.1735H155.814L164.539 63.6028H159.8L158.068 59.4394ZM167.68 63.6028V44.1735H171.415L181.115 55.9608V44.1735H185.575V68.256L172.14 51.829V63.6028H167.68Z" fill="#1D1D1D"/>
<path d="M131.191 40.393C112.646 8.7082 77.5043 7.04062 59.1101 40.3926C77.73 72.3284 112.649 71.0072 131.191 40.393Z" fill="#F34C2A"/>
<path fill-rule="evenodd" clip-rule="evenodd" d="M93.604 42.9334V59.15L106.684 37.0959H96.2274V20.8687L83.6176 42.9334H93.604Z" fill="white"/>
</svg>
