<svg width="260" height="80" viewBox="0 0 260 80" fill="none" xmlns="http://www.w3.org/2000/svg">
<rect width="260" height="80" rx="10" fill="#F2F2F2"/>
<path d="M56.0001 34.8193H75.8059V54.156H70.5671V38.9988H61.2389V54.156H56.0001V34.8193ZM77.8627 54.156L87.4314 34.8193H93.0979L102.667 54.156H97.3744L95.5836 50.3997H85.106L83.3153 54.156H77.8627ZM90.3181 39.422L86.9771 46.4584H93.6859L90.3181 39.422ZM116.707 48.1777H109.971V54.156H104.733V34.8193H116.707C120.663 34.8193 124.325 35.9833 124.325 41.5911C124.325 47.2254 120.583 48.1777 116.707 48.1777ZM119.166 41.5911C119.166 39.5543 118.124 39.0782 116.867 39.0782H109.971V44.0776H116.867C118.124 44.0776 119.166 43.6015 119.166 41.5911Z" fill="#1F1A17"/>
<path d="M142.921 28.084V41.7598L152.596 28.084H157.861V47.4206H153.024V34.1151L143.322 47.4206H138.056V28.084H142.921ZM176.063 28.084H181.301V47.4206H176.063V39.8817H166.735V47.4206H161.496V28.084H166.735V35.6229H176.063V28.084ZM190.174 32.2635V47.4206H184.935V28.084H202.256V32.2635H190.174Z" fill="#1F1A17"/>
<g filter="url(#filter0_d_171_760)">
<path fill-rule="evenodd" clip-rule="evenodd" d="M156.478 26.6807C156.468 26.6622 156.46 26.6436 156.451 26.6254C153.261 20.1163 145.344 17.3988 138.767 20.5554C132.19 23.7121 129.444 31.5476 132.634 38.0567C132.643 38.0749 132.652 38.0934 132.661 38.112L126.649 40.9977C126.64 40.9791 126.63 40.9609 126.621 40.9424C121.821 31.1471 125.953 19.3556 135.851 14.6052C145.749 9.85474 157.663 13.9443 162.463 23.7394C162.472 23.7579 162.482 23.7765 162.49 23.795L156.478 26.6807Z" fill="#B63940"/>
</g>
<g filter="url(#filter1_d_171_760)">
<path fill-rule="evenodd" clip-rule="evenodd" d="M127.845 44.0837C127.854 44.1009 127.862 44.1181 127.871 44.1356C130.61 49.7252 128.15 57.2582 121.222 60.5839C114.293 63.9094 106.793 61.1566 104.054 55.5669C104.045 55.5498 104.037 55.5323 104.028 55.5148L98.0157 58.4007C98.0243 58.418 98.0329 58.4354 98.0411 58.4526C102.556 67.6664 114.24 71.2846 124.137 66.534C134.035 61.7834 138.398 50.4634 133.883 41.2499C133.875 41.2324 133.866 41.2152 133.858 41.1978L127.845 44.0837Z" fill="#B63940"/>
</g>
<g filter="url(#filter2_d_171_760)">
<path d="M203.858 51.752V53.2884H201.319V58.1459H199.311V51.752H203.858Z" fill="#8586A5"/>
<path d="M196.953 54.2457V55.7762H193.735V54.2457H196.953ZM194.468 51.752V58.1459H192.46V51.752H194.468ZM198.239 51.752V58.1459H196.226V51.752H198.239Z" fill="#8586A5"/>
<path d="M187.622 55.463L189.397 51.752H191.405V58.1459H189.397V54.423L187.622 58.1459H185.608V51.752H187.622V55.463Z" fill="#8586A5"/>
<path d="M182.854 51.752V58.1459H180.841V51.752H182.854ZM184.892 51.752V53.2766H178.838V51.752H184.892Z" fill="#8586A5"/>
<path d="M175.786 58.2607C175.262 58.2607 174.793 58.18 174.381 58.0184C173.967 57.853 173.617 57.6264 173.332 57.3389C173.05 57.0512 172.833 56.7203 172.682 56.3461C172.536 55.9718 172.461 55.5758 172.461 55.1583V54.9337C172.461 54.4649 172.527 54.0315 172.658 53.6337C172.789 53.2318 172.984 52.8811 173.242 52.5818C173.5 52.2824 173.824 52.0499 174.213 51.8844C174.603 51.715 175.056 51.6304 175.572 51.6304C176.029 51.6304 176.438 51.7032 176.8 51.849C177.161 51.9947 177.467 52.2036 177.718 52.4754C177.971 52.7472 178.164 53.0762 178.295 53.4622C178.431 53.8484 178.497 54.2817 178.497 54.7623V55.5719H173.23V54.325H176.538V54.1714C176.542 53.9587 176.504 53.7775 176.424 53.6277C176.348 53.478 176.238 53.3638 176.09 53.285C175.944 53.2061 175.765 53.1668 175.554 53.1668C175.336 53.1668 175.155 53.214 175.012 53.3087C174.873 53.4032 174.764 53.5332 174.685 53.6986C174.609 53.8602 174.555 54.0473 174.523 54.2601C174.491 54.4728 174.476 54.6974 174.476 54.9337V55.1583C174.476 55.3946 174.508 55.6093 174.571 55.8023C174.639 55.9955 174.734 56.1608 174.858 56.2988C174.984 56.4327 175.135 56.5371 175.31 56.612C175.489 56.6868 175.691 56.7243 175.917 56.7243C176.192 56.7243 176.462 56.673 176.728 56.5706C176.995 56.4682 177.223 56.2988 177.414 56.0624L178.325 57.1379C178.194 57.323 178.007 57.5023 177.765 57.6757C177.526 57.849 177.241 57.9908 176.907 58.1012C176.574 58.2075 176.2 58.2607 175.786 58.2607Z" fill="#8586A5"/>
<path d="M172.181 51.752V53.2884H169.643V58.1459H167.635V51.752H172.181Z" fill="#8586A5"/>
<path d="M162.822 52.9777V60.6008H160.814V51.7485H162.685L162.822 52.9777ZM166.779 54.8687V54.9928C166.779 55.4577 166.725 55.889 166.618 56.287C166.51 56.6848 166.351 57.0315 166.141 57.327C165.93 57.6225 165.668 57.853 165.355 58.0184C165.044 58.18 164.685 58.2607 164.275 58.2607C163.89 58.2607 163.559 58.1759 163.281 58.0066C163.002 57.8372 162.77 57.6028 162.583 57.3034C162.396 57.004 162.246 56.6612 162.131 56.2752C162.016 55.889 161.924 55.4813 161.856 55.0519V54.8923C161.924 54.4314 162.016 54.004 162.131 53.61C162.246 53.2121 162.396 52.8654 162.583 52.57C162.77 52.2744 163 52.044 163.275 51.8786C163.552 51.7131 163.885 51.6304 164.27 51.6304C164.679 51.6304 165.039 51.7072 165.348 51.8608C165.662 52.0145 165.925 52.2351 166.135 52.5226C166.349 52.8063 166.51 53.1471 166.618 53.545C166.725 53.9429 166.779 54.3842 166.779 54.8687ZM164.771 54.9928V54.8687C164.771 54.6205 164.752 54.394 164.717 54.1891C164.681 53.9804 164.623 53.7991 164.544 53.6455C164.469 53.4918 164.367 53.3736 164.24 53.2909C164.113 53.2082 163.956 53.1668 163.769 53.1668C163.555 53.1668 163.374 53.2003 163.227 53.2673C163.084 53.3303 162.968 53.4287 162.882 53.5627C162.798 53.6927 162.739 53.8563 162.703 54.0532C162.671 54.2462 162.657 54.4728 162.661 54.7328V55.2173C162.653 55.5168 162.683 55.7807 162.751 56.0092C162.818 56.2338 162.936 56.4091 163.102 56.5352C163.269 56.6612 163.496 56.7243 163.781 56.7243C163.972 56.7243 164.131 56.6809 164.258 56.5942C164.385 56.5036 164.486 56.3795 164.562 56.222C164.637 56.0604 164.691 55.8753 164.723 55.6664C164.754 55.4577 164.771 55.2332 164.771 54.9928Z" fill="#8586A5"/>
<path d="M157.662 56.5352V53.8995C157.662 53.7183 157.636 53.5627 157.584 53.4327C157.533 53.3027 157.451 53.2022 157.34 53.1314C157.229 53.0565 157.08 53.0191 156.893 53.0191C156.742 53.0191 156.613 53.0447 156.506 53.0959C156.399 53.1471 156.317 53.2239 156.262 53.3263C156.206 53.4287 156.178 53.5588 156.178 53.7164H154.17C154.17 53.4209 154.235 53.1471 154.367 52.895C154.501 52.6389 154.692 52.4163 154.939 52.2272C155.189 52.0381 155.487 51.8923 155.832 51.7899C156.182 51.6835 156.571 51.6304 157 51.6304C157.513 51.6304 157.969 51.715 158.371 51.8844C158.776 52.0539 159.096 52.3079 159.33 52.6468C159.565 52.9816 159.682 53.4032 159.682 53.9114V56.5292C159.682 56.9469 159.706 57.264 159.753 57.4806C159.801 57.6934 159.869 57.8805 159.955 58.042V58.1425H157.942C157.847 57.9455 157.775 57.7052 157.727 57.4216C157.684 57.1339 157.662 56.8385 157.662 56.5352ZM157.906 54.2364L157.918 55.3001H157.03C156.844 55.3001 156.684 55.3257 156.553 55.3769C156.426 55.4281 156.323 55.499 156.243 55.5896C156.168 55.6763 156.112 55.7748 156.077 55.8851C156.045 55.9955 156.029 56.1116 156.029 56.2338C156.029 56.3519 156.057 56.4583 156.112 56.5528C156.172 56.6435 156.251 56.7144 156.351 56.7656C156.45 56.8168 156.562 56.8424 156.684 56.8424C156.907 56.8424 157.095 56.8011 157.251 56.7183C157.409 56.6317 157.531 56.5273 157.614 56.4051C157.698 56.283 157.739 56.1688 157.739 56.0624L158.18 56.8778C158.1 57.0355 158.01 57.1951 157.906 57.3565C157.806 57.5181 157.682 57.6678 157.531 57.8056C157.384 57.9396 157.203 58.0499 156.988 58.1366C156.774 58.2193 156.514 58.2607 156.208 58.2607C155.81 58.2607 155.445 58.18 155.111 58.0184C154.782 57.8569 154.518 57.6323 154.319 57.3447C154.12 57.0532 154.021 56.7183 154.021 56.3401C154.021 56.0092 154.08 55.7137 154.199 55.4537C154.323 55.1937 154.508 54.9731 154.754 54.7919C155 54.6107 155.314 54.4728 155.695 54.3782C156.077 54.2837 156.526 54.2364 157.042 54.2364H157.906Z" fill="#8586A5"/>
<path d="M151.619 51.752V58.1459H149.606V51.752H151.619ZM153.658 51.752V53.2766H147.603V51.752H153.658Z" fill="#8586A5"/>
<path d="M140.095 55.463L141.871 51.752H143.879V58.1459H141.871V54.423L140.095 58.1459H138.081V51.752H140.095V55.463Z" fill="#8586A5"/>
</g>
<defs>
<filter id="filter0_d_171_760" x="123.705" y="12.625" width="39.6998" height="30.2031" filterUnits="userSpaceOnUse" color-interpolation-filters="sRGB">
<feFlood flood-opacity="0" result="BackgroundImageFix"/>
<feColorMatrix in="SourceAlpha" type="matrix" values="0 0 0 0 0 0 0 0 0 0 0 0 0 0 0 0 0 0 127 0" result="hardAlpha"/>
<feOffset dy="0.915248"/>
<feGaussianBlur stdDeviation="0.457624"/>
<feComposite in2="hardAlpha" operator="out"/>
<feColorMatrix type="matrix" values="0 0 0 0 0.101961 0 0 0 0 0.133333 0 0 0 0 0.207843 0 0 0 0.25 0"/>
<feBlend mode="normal" in2="BackgroundImageFix" result="effect1_dropShadow_171_760"/>
<feBlend mode="normal" in="SourceGraphic" in2="effect1_dropShadow_171_760" result="shape"/>
</filter>
<filter id="filter1_d_171_760" x="98.0157" y="41.1978" width="39.4792" height="29.2577" filterUnits="userSpaceOnUse" color-interpolation-filters="sRGB">
<feFlood flood-opacity="0" result="BackgroundImageFix"/>
<feColorMatrix in="SourceAlpha" type="matrix" values="0 0 0 0 0 0 0 0 0 0 0 0 0 0 0 0 0 0 127 0" result="hardAlpha"/>
<feOffset dx="0.915248" dy="0.915248"/>
<feGaussianBlur stdDeviation="0.457624"/>
<feComposite in2="hardAlpha" operator="out"/>
<feColorMatrix type="matrix" values="0 0 0 0 0.101961 0 0 0 0 0.133333 0 0 0 0 0.207843 0 0 0 0.3 0"/>
<feBlend mode="normal" in2="BackgroundImageFix" result="effect1_dropShadow_171_760"/>
<feBlend mode="normal" in="SourceGraphic" in2="effect1_dropShadow_171_760" result="shape"/>
</filter>
<filter id="filter2_d_171_760" x="137.166" y="51.6304" width="67.6076" height="10.8007" filterUnits="userSpaceOnUse" color-interpolation-filters="sRGB">
<feFlood flood-opacity="0" result="BackgroundImageFix"/>
<feColorMatrix in="SourceAlpha" type="matrix" values="0 0 0 0 0 0 0 0 0 0 0 0 0 0 0 0 0 0 127 0" result="hardAlpha"/>
<feOffset dy="0.915248"/>
<feGaussianBlur stdDeviation="0.457624"/>
<feComposite in2="hardAlpha" operator="out"/>
<feColorMatrix type="matrix" values="0 0 0 0 0.101961 0 0 0 0 0.133333 0 0 0 0 0.207843 0 0 0 0.25 0"/>
<feBlend mode="normal" in2="BackgroundImageFix" result="effect1_dropShadow_171_760"/>
<feBlend mode="normal" in="SourceGraphic" in2="effect1_dropShadow_171_760" result="shape"/>
</filter>
</defs>
</svg>
