<svg width="373" height="79" viewBox="0 0 373 79" fill="none" xmlns="http://www.w3.org/2000/svg">
<rect width="373" height="79" rx="10" fill="#F2F2F2"/>
<path d="M89.2245 26.3025L42.884 20L41.8649 27.4934L88.2053 33.7959L89.2245 26.3025Z" fill="black"/>
<path fill-rule="evenodd" clip-rule="evenodd" d="M65.8588 35.0625C64.6297 36.0868 63.8475 37.6292 63.8475 39.3542C63.8475 42.438 66.3475 44.938 69.4315 44.938C72.5155 44.938 75.0155 42.438 75.0155 39.3542C75.0155 38.1843 74.6557 37.0986 74.0409 36.2014L65.8588 35.0625Z" fill="black"/>
<path fill-rule="evenodd" clip-rule="evenodd" d="M50.1253 36.3247H41C41.6905 48.7306 50.5374 58.9381 62.1552 59.9231C74.4348 60.9642 85.3564 51.3244 87.285 38.1118L77.6345 36.7312C77.6664 37.0842 77.6828 37.4415 77.6828 37.8022C77.6828 44.7859 71.5894 50.4473 64.0729 50.4473C59.7604 50.4473 55.9164 48.5839 53.4228 45.6762C51.4336 43.6522 50.1253 40.2192 50.1253 36.3247Z" fill="black"/>
<path d="M113.351 56.8774V31.6448H103.692V26.2408H128.798V31.6448H119.138V56.8774H113.351ZM144.983 57.5157C143.054 57.5157 141.217 57.1753 139.472 56.4945C137.728 55.7995 136.182 54.7782 134.834 53.4308C133.501 52.0834 132.444 50.4168 131.664 48.4311C130.898 46.4454 130.515 44.1547 130.515 41.5591C130.515 38.1692 131.161 35.29 132.451 32.9213C133.756 30.5384 135.501 28.7229 137.685 27.4748C139.884 26.2266 142.316 25.6025 144.983 25.6025C148.926 25.6025 152.025 26.5174 154.28 28.3471C156.535 30.1768 158.046 32.7653 158.812 36.1126L152.897 36.9636C152.344 35.1765 151.436 33.751 150.174 32.6873C148.926 31.6093 147.323 31.0632 145.366 31.049C143.422 31.0207 141.805 31.4391 140.515 32.3043C139.224 33.1695 138.252 34.3964 137.6 35.985C136.962 37.5735 136.643 39.4316 136.643 41.5591C136.643 43.6867 136.962 45.5305 137.6 47.0907C138.252 48.6509 139.224 49.8636 140.515 50.7288C141.805 51.594 143.422 52.0408 145.366 52.0692C146.685 52.0975 147.876 51.8706 148.94 51.3884C150.018 50.9061 150.926 50.1473 151.663 49.1119C152.401 48.0765 152.926 46.7503 153.238 45.1334H148.387V40.6655H159.408C159.436 40.8499 159.457 41.1762 159.471 41.6442C159.486 42.1123 159.493 42.3818 159.493 42.4527C159.493 45.3887 158.897 47.9914 157.705 50.2608C156.514 52.5301 154.833 54.3102 152.663 55.6009C150.493 56.8774 147.933 57.5157 144.983 57.5157ZM163.756 56.8774V26.2408H175.585C175.883 26.2408 176.217 26.255 176.585 26.2834C176.968 26.2975 177.351 26.3401 177.734 26.411C179.337 26.6521 180.692 27.2124 181.798 28.0918C182.919 28.957 183.762 30.0491 184.33 31.3682C184.911 32.6873 185.202 34.1482 185.202 35.7509C185.202 37.3395 184.911 38.7933 184.33 40.1124C183.748 41.4315 182.897 42.5307 181.777 43.4101C180.67 44.2753 179.323 44.8284 177.734 45.0696C177.351 45.1263 176.968 45.1688 176.585 45.1972C176.217 45.2256 175.883 45.2398 175.585 45.2398H166.884V56.8774H163.756ZM166.884 42.2612H175.5C175.756 42.2612 176.054 42.247 176.394 42.2186C176.734 42.1903 177.068 42.1406 177.394 42.0697C178.444 41.8428 179.302 41.4102 179.968 40.7719C180.649 40.1337 181.153 39.3748 181.479 38.4954C181.819 37.6161 181.989 36.7012 181.989 35.7509C181.989 34.8006 181.819 33.8858 181.479 33.0064C181.153 32.1128 180.649 31.3469 179.968 30.7086C179.302 30.0704 178.444 29.6378 177.394 29.4108C177.068 29.3399 176.734 29.2974 176.394 29.2832C176.054 29.2548 175.756 29.2406 175.5 29.2406H166.884V42.2612ZM185.189 56.8774L195.742 26.2408H199.891L210.444 56.8774H207.188L197.168 27.9854H198.401L188.444 56.8774H185.189ZM189.891 49.4523V46.5163H205.72V49.4523H189.891ZM214.286 56.8774V26.2408H226.115C226.413 26.2408 226.746 26.255 227.115 26.2834C227.498 26.2975 227.881 26.3401 228.264 26.411C229.867 26.6521 231.221 27.2124 232.328 28.0918C233.448 28.957 234.292 30.0491 234.859 31.3682C235.441 32.6873 235.732 34.1482 235.732 35.7509C235.732 38.0628 235.122 40.0698 233.902 41.7719C232.682 43.4739 230.938 44.5448 228.668 44.9845L227.583 45.2398H217.413V56.8774H214.286ZM232.838 56.8774L226.796 44.41L229.796 43.2611L236.434 56.8774H232.838ZM217.413 42.2612H226.03C226.285 42.2612 226.583 42.247 226.924 42.2186C227.264 42.1903 227.597 42.1406 227.924 42.0697C228.973 41.8428 229.831 41.4102 230.498 40.7719C231.179 40.1337 231.682 39.3748 232.008 38.4954C232.349 37.6161 232.519 36.7012 232.519 35.7509C232.519 34.8006 232.349 33.8858 232.008 33.0064C231.682 32.1128 231.179 31.3469 230.498 30.7086C229.831 30.0704 228.973 29.6378 227.924 29.4108C227.597 29.3399 227.264 29.2974 226.924 29.2832C226.583 29.2548 226.285 29.2406 226.03 29.2406H217.413V42.2612ZM251.768 57.5157C249.626 57.5157 247.697 57.1611 245.981 56.4519C244.279 55.7285 242.868 54.7073 241.747 53.3882C240.641 52.0692 239.917 50.5019 239.577 48.6864L242.768 48.1545C243.279 50.1402 244.357 51.7004 246.002 52.8351C247.648 53.9556 249.612 54.5158 251.896 54.5158C253.399 54.5158 254.746 54.2818 255.938 53.8138C257.129 53.3315 258.065 52.6507 258.746 51.7713C259.427 50.8919 259.768 49.8494 259.768 48.6438C259.768 47.8495 259.626 47.1758 259.342 46.6227C259.058 46.0553 258.682 45.5873 258.214 45.2185C257.746 44.8497 257.236 44.5448 256.683 44.3036C256.129 44.0483 255.59 43.8427 255.066 43.6867L247.3 41.3676C246.364 41.0981 245.499 40.7577 244.704 40.3464C243.91 39.9209 243.215 39.4174 242.619 38.8359C242.038 38.2401 241.584 37.5451 241.258 36.7509C240.932 35.9566 240.768 35.0488 240.768 34.0276C240.768 32.2972 241.222 30.8008 242.13 29.5385C243.038 28.2762 244.279 27.3046 245.853 26.6238C247.428 25.9429 249.222 25.6096 251.236 25.6238C253.278 25.6238 255.101 25.9855 256.704 26.7089C258.321 27.4322 259.654 28.4676 260.704 29.8151C261.753 31.1483 262.448 32.7298 262.789 34.5595L259.512 35.1552C259.299 33.8219 258.81 32.666 258.044 31.6873C257.278 30.7086 256.3 29.9569 255.108 29.4321C253.931 28.8931 252.633 28.6166 251.215 28.6024C249.839 28.6024 248.612 28.8364 247.534 29.3045C246.47 29.7583 245.626 30.3824 245.002 31.1767C244.378 31.971 244.066 32.8787 244.066 33.9C244.066 34.9354 244.35 35.7651 244.917 36.3892C245.499 37.0133 246.208 37.5026 247.045 37.8572C247.896 38.2118 248.718 38.5025 249.513 38.7295L255.512 40.4953C256.136 40.6655 256.867 40.9138 257.704 41.24C258.555 41.552 259.377 42.0059 260.172 42.6016C260.98 43.1831 261.647 43.949 262.172 44.8994C262.696 45.8497 262.959 47.0553 262.959 48.5162C262.959 49.9345 262.675 51.204 262.108 52.3245C261.555 53.445 260.767 54.3882 259.746 55.1541C258.739 55.92 257.555 56.5016 256.193 56.8987C254.846 57.31 253.371 57.5157 251.768 57.5157ZM267.776 56.8774V26.2408H270.903V56.8774H267.776ZM277.282 56.8774V26.2408H280.43L297.302 51.3458V26.2408H300.451V56.8774H297.302L280.43 31.7511V56.8774H277.282ZM318.687 57.5157C316.531 57.5157 314.588 57.1398 312.857 56.3881C311.127 55.6364 309.652 54.5655 308.432 53.1755C307.226 51.7855 306.304 50.1118 305.666 48.1545C305.028 46.183 304.709 43.9845 304.709 41.5591C304.709 38.3536 305.262 35.5594 306.368 33.1766C307.489 30.7796 309.092 28.9215 311.177 27.6024C313.262 26.2834 315.765 25.6238 318.687 25.6238C321.949 25.6238 324.601 26.3897 326.644 27.9216C328.701 29.4392 330.133 31.4816 330.942 34.0489L327.793 34.8148C327.126 32.9426 326.027 31.4462 324.495 30.3257C322.977 29.2052 321.084 28.6449 318.815 28.6449C316.417 28.6307 314.425 29.1697 312.836 30.2619C311.247 31.3398 310.049 32.8575 309.24 34.8148C308.446 36.758 308.042 39.0061 308.028 41.5591C308.014 44.1122 308.404 46.3603 309.198 48.3034C310.006 50.2324 311.212 51.75 312.815 52.8564C314.418 53.9485 316.417 54.5017 318.815 54.5158C321.013 54.5158 322.829 54.0903 324.261 53.2393C325.694 52.3883 326.779 51.1685 327.516 49.5799C328.268 47.9914 328.694 46.1121 328.793 43.942H321.729V41.2613H332.069C332.112 41.5875 332.133 41.935 332.133 42.3038C332.147 42.6583 332.154 42.9136 332.154 43.0697C332.154 45.8355 331.658 48.3105 330.665 50.4948C329.672 52.6649 328.176 54.3811 326.176 55.6434C324.19 56.8916 321.694 57.5157 318.687 57.5157Z" fill="black"/>
</svg>
