<svg width="260" height="80" viewBox="0 0 260 80" fill="none" xmlns="http://www.w3.org/2000/svg">
<rect width="260" height="80" rx="10" fill="#F2F2F2"/>
<path d="M62.036 30.4118L29.5977 26L28.8843 31.2453L61.3226 35.6571L62.036 30.4118Z" fill="black"/>
<path fill-rule="evenodd" clip-rule="evenodd" d="M45.68 36.5435C44.8197 37.2605 44.2721 38.3401 44.2721 39.5476C44.2721 41.7063 46.0221 43.4563 48.1809 43.4563C50.3397 43.4563 52.0897 41.7063 52.0897 39.5476C52.0897 38.7287 51.8378 37.9687 51.4075 37.3407L45.68 36.5435Z" fill="black"/>
<path fill-rule="evenodd" clip-rule="evenodd" d="M34.6666 37.4272H28.2789C28.7622 46.1113 34.9551 53.2566 43.0875 53.9461C51.6832 54.6749 59.3284 47.9271 60.6784 38.6782L53.923 37.7118C53.9454 37.9589 53.9568 38.209 53.9568 38.4615C53.9568 43.3501 49.6915 47.3131 44.4299 47.3131C41.4112 47.3131 38.7203 46.0087 36.9749 43.9733C35.5824 42.5565 34.6666 40.1534 34.6666 37.4272Z" fill="black"/>
<path d="M78.9248 51.8138V34.1509H72.1635V30.3682H89.7371V34.1509H82.9757V51.8138H78.9248ZM101.067 52.2606C99.7164 52.2606 98.4306 52.0223 97.2094 51.5457C95.9882 51.0592 94.906 50.3444 93.9628 49.4012C93.0295 48.458 92.2898 47.2914 91.7437 45.9014C91.2076 44.5114 90.9395 42.9079 90.9395 41.091C90.9395 38.7181 91.3912 36.7026 92.2947 35.0445C93.2082 33.3765 94.4294 32.1057 95.9584 31.232C97.4974 30.3582 99.2001 29.9214 101.067 29.9214C103.827 29.9214 105.996 30.5618 107.575 31.8426C109.154 33.1233 110.211 34.9353 110.747 37.2784L106.607 37.8741C106.22 36.6231 105.584 35.6253 104.701 34.8807C103.827 34.1261 102.705 33.7439 101.335 33.7339C99.9746 33.7141 98.8427 34.007 97.9392 34.6126C97.0357 35.2183 96.3556 36.0771 95.8988 37.1891C95.4521 38.3011 95.2287 39.6017 95.2287 41.091C95.2287 42.5803 95.4521 43.871 95.8988 44.9631C96.3556 46.0553 97.0357 46.9041 97.9392 47.5098C98.8427 48.1154 99.9746 48.4282 101.335 48.448C102.258 48.4679 103.092 48.309 103.837 47.9715C104.591 47.6339 105.227 47.1027 105.743 46.3779C106.259 45.6531 106.627 44.7248 106.845 43.593H103.45V40.4655H111.164C111.184 40.5946 111.199 40.8229 111.209 41.1506C111.219 41.4782 111.224 41.6668 111.224 41.7165C111.224 43.7717 110.807 45.5936 109.973 47.1821C109.139 48.7707 107.962 50.0167 106.443 50.9202C104.924 51.8138 103.132 52.2606 101.067 52.2606ZM114.208 51.8138V30.3682H122.489C122.697 30.3682 122.931 30.3781 123.189 30.398C123.457 30.4079 123.725 30.4377 123.993 30.4873C125.115 30.6561 126.063 31.0483 126.837 31.6638C127.622 32.2695 128.213 33.034 128.61 33.9573C129.017 34.8807 129.22 35.9033 129.22 37.0253C129.22 38.1372 129.017 39.1549 128.61 40.0783C128.203 41.0016 127.607 41.7711 126.823 42.3867C126.048 42.9923 125.105 43.3795 123.993 43.5483C123.725 43.588 123.457 43.6178 123.189 43.6377C122.931 43.6575 122.697 43.6674 122.489 43.6674H116.397V51.8138H114.208ZM116.397 41.5825H122.429C122.608 41.5825 122.816 41.5725 123.055 41.5527C123.293 41.5328 123.526 41.4981 123.755 41.4484C124.489 41.2896 125.09 40.9867 125.557 40.54C126.033 40.0932 126.386 39.562 126.614 38.9464C126.852 38.3309 126.971 37.6905 126.971 37.0253C126.971 36.36 126.852 35.7197 126.614 35.1041C126.386 34.4786 126.033 33.9424 125.557 33.4957C125.09 33.0489 124.489 32.7461 123.755 32.5872C123.526 32.5376 123.293 32.5078 123.055 32.4978C122.816 32.478 122.608 32.4681 122.429 32.4681H116.397V41.5825ZM129.211 51.8138L136.598 30.3682H139.502L146.889 51.8138H144.611L137.596 31.5894H138.46L131.49 51.8138H129.211ZM132.503 46.6162V44.561H143.583V46.6162H132.503ZM149.579 51.8138V30.3682H157.859C158.068 30.3682 158.301 30.3781 158.559 30.398C158.828 30.4079 159.096 30.4377 159.364 30.4873C160.486 30.6561 161.434 31.0483 162.208 31.6638C162.993 32.2695 163.583 33.034 163.98 33.9573C164.388 34.8807 164.591 35.9033 164.591 37.0253C164.591 38.6436 164.164 40.0485 163.31 41.2399C162.456 42.4313 161.235 43.1809 159.647 43.4887L158.887 43.6674H151.768V51.8138H149.579ZM162.566 51.8138L158.336 43.0866L160.436 42.2824L165.083 51.8138H162.566ZM151.768 41.5825H157.8C157.979 41.5825 158.187 41.5725 158.425 41.5527C158.664 41.5328 158.897 41.4981 159.125 41.4484C159.86 41.2896 160.461 40.9867 160.927 40.54C161.404 40.0932 161.756 39.562 161.985 38.9464C162.223 38.3309 162.342 37.6905 162.342 37.0253C162.342 36.36 162.223 35.7197 161.985 35.1041C161.756 34.4786 161.404 33.9424 160.927 33.4957C160.461 33.0489 159.86 32.7461 159.125 32.5872C158.897 32.5376 158.664 32.5078 158.425 32.4978C158.187 32.478 157.979 32.4681 157.8 32.4681H151.768V41.5825ZM175.816 52.2606C174.317 52.2606 172.967 52.0124 171.766 51.5159C170.574 51.0096 169.586 50.2947 168.802 49.3714C168.027 48.448 167.521 47.3509 167.283 46.0801L169.517 45.7078C169.874 47.0977 170.629 48.1899 171.78 48.9842C172.932 49.7685 174.307 50.1607 175.906 50.1607C176.958 50.1607 177.901 49.9969 178.735 49.6692C179.569 49.3317 180.225 48.8551 180.701 48.2395C181.178 47.624 181.416 46.8942 181.416 46.0503C181.416 45.4943 181.317 45.0227 181.118 44.6355C180.92 44.2383 180.657 43.9107 180.329 43.6525C180.001 43.3944 179.644 43.1809 179.257 43.0122C178.869 42.8334 178.492 42.6895 178.125 42.5803L172.689 40.957C172.034 40.7683 171.428 40.53 170.872 40.2421C170.316 39.9442 169.829 39.5918 169.412 39.1847C169.005 38.7677 168.688 38.2812 168.459 37.7252C168.231 37.1692 168.117 36.5338 168.117 35.8189C168.117 34.6077 168.434 33.5602 169.07 32.6766C169.705 31.7929 170.574 31.1128 171.676 30.6362C172.778 30.1597 174.034 29.9264 175.444 29.9363C176.874 29.9363 178.15 30.1895 179.272 30.6958C180.403 31.2022 181.337 31.927 182.071 32.8702C182.806 33.8034 183.293 34.9105 183.531 36.1913L181.237 36.6083C181.088 35.675 180.746 34.8658 180.21 34.1807C179.674 33.4957 178.989 32.9694 178.155 32.6021C177.331 32.2248 176.422 32.0312 175.429 32.0213C174.466 32.0213 173.607 32.1851 172.853 32.5127C172.108 32.8304 171.517 33.2673 171.08 33.8233C170.644 34.3793 170.425 35.0147 170.425 35.7296C170.425 36.4544 170.624 37.0352 171.021 37.472C171.428 37.9089 171.924 38.2514 172.51 38.4996C173.106 38.7479 173.682 38.9514 174.238 39.1102L178.438 40.3463C178.874 40.4655 179.386 40.6392 179.972 40.8676C180.567 41.086 181.143 41.4037 181.699 41.8207C182.265 42.2278 182.732 42.7639 183.099 43.4292C183.466 44.0944 183.65 44.9383 183.65 45.9609C183.65 46.9538 183.452 47.8424 183.054 48.6267C182.667 49.4111 182.116 50.0713 181.401 50.6075C180.696 51.1436 179.867 51.5507 178.914 51.8287C177.971 52.1166 176.938 52.2606 175.816 52.2606ZM187.022 51.8138V30.3682H189.211V51.8138H187.022ZM193.676 51.8138V30.3682H195.88L207.69 47.9417V30.3682H209.894V51.8138H207.69L195.88 34.2254V51.8138H193.676ZM222.66 52.2606C221.151 52.2606 219.79 51.9975 218.579 51.4713C217.368 50.9451 216.335 50.1955 215.481 49.2225C214.637 48.2495 213.992 47.0779 213.545 45.7078C213.098 44.3277 212.875 42.7888 212.875 41.091C212.875 38.8471 213.262 36.8912 214.037 35.2232C214.821 33.5453 215.943 32.2447 217.402 31.3213C218.862 30.398 220.614 29.9363 222.66 29.9363C224.943 29.9363 226.8 30.4724 228.23 31.5447C229.669 32.6071 230.672 34.0368 231.238 35.8338L229.034 36.37C228.567 35.0594 227.798 34.0119 226.725 33.2276C225.663 32.4432 224.338 32.0511 222.749 32.0511C221.071 32.0411 219.676 32.4184 218.564 33.1829C217.452 33.9375 216.613 34.9998 216.047 36.37C215.491 37.7302 215.208 39.3039 215.198 41.091C215.188 42.8781 215.461 44.4518 216.017 45.812C216.583 47.1623 217.427 48.2246 218.549 48.9991C219.671 49.7636 221.071 50.1508 222.749 50.1607C224.288 50.1607 225.559 49.8628 226.562 49.2671C227.564 48.6714 228.324 47.8176 228.84 46.7056C229.366 45.5936 229.664 44.278 229.734 42.759H224.789V40.8825H232.027C232.057 41.1108 232.072 41.3541 232.072 41.6122C232.082 41.8604 232.087 42.0392 232.087 42.1484C232.087 44.0844 231.739 45.817 231.044 47.346C230.349 48.865 229.302 50.0664 227.902 50.95C226.512 51.8237 224.765 52.2606 222.66 52.2606Z" fill="black"/>
</svg>
